<svg width="134" height="47" viewBox="0 0 134 47" fill="none" xmlns="http://www.w3.org/2000/svg">
<path d="M20.6094 20.4141H24.702V35.9763H32.2238V39.258H20.6094V20.4141Z" fill="white"/>
<path d="M28.6027 0L34.8154 6.21268L11.1925 29.8356L22.6087 41.2492L17.6289 46.229L0 28.6002L28.6027 0Z" fill="#F01E00"/>
<path d="M41.4074 24.6221C43.458 24.6221 45.1417 25.2805 46.4584 26.5972C47.7752 27.914 48.4429 29.7332 48.4615 32.0549C48.4615 34.3987 47.7938 36.2187 46.4584 37.5152C45.123 38.8116 43.4394 39.4691 41.4074 39.4878C39.3569 39.4878 37.6537 38.8302 36.298 37.5152C34.9795 36.1899 34.3203 34.3656 34.3203 32.0422C34.3203 29.7188 34.9787 27.8996 36.2955 26.5845C37.6512 25.2678 39.3543 24.6094 41.4049 24.6094M44.4884 32.0422C44.4884 30.4357 44.1986 29.2646 43.619 28.5292C43.3652 28.1833 43.0327 27.9029 42.649 27.7111C42.2653 27.5192 41.8415 27.4215 41.4125 27.4259C40.9802 27.427 40.5539 27.527 40.1662 27.7183C39.7784 27.9095 39.4396 28.1868 39.1756 28.5292C38.596 29.2663 38.3062 30.4374 38.3062 32.0422C38.3062 33.6471 38.5943 34.8173 39.1705 35.5527C39.4341 35.8955 39.7729 36.1732 40.1607 36.3644C40.5485 36.5557 40.975 36.6554 41.4074 36.656C41.8365 36.661 42.2606 36.5636 42.6443 36.3717C43.0281 36.1798 43.3605 35.899 43.6139 35.5527C44.1935 34.8189 44.4833 33.6479 44.4833 32.0397" fill="white"/>
<path d="M55.4474 30.2146V39.2438H51.5938V24.8433H55.4551V26.9913C55.9143 26.2793 56.5365 25.6867 57.2701 25.2627C57.8852 24.9006 58.5743 24.6825 59.2858 24.6248C59.9973 24.5672 60.7125 24.6714 61.378 24.9297L60.5365 27.8912C60.1185 27.8021 59.6929 27.7536 59.2655 27.7463C57.4844 27.7463 56.2134 28.5691 55.4525 30.2146" fill="white"/>
<path d="M69.2763 24.6417C70.8811 24.6417 72.1521 25.1551 73.0893 26.1821V19.0391H76.9506V39.276H73.0791V38.005C72.1301 39.0116 70.8591 39.515 69.2661 39.515C68.3882 39.5406 67.5152 39.3747 66.7079 39.0287C65.9006 38.6828 65.1784 38.1652 64.5914 37.5119C63.3898 36.1561 62.7891 34.3564 62.7891 32.1126C62.7891 29.8689 63.3932 28.0564 64.6015 26.6753C65.1838 26.0141 65.9045 25.4891 66.7124 25.1377C67.5202 24.7862 68.3956 24.6169 69.2763 24.6417ZM70.1762 27.4379C69.7058 27.43 69.2401 27.5324 68.8163 27.7368C68.3926 27.9411 68.0225 28.2418 67.7358 28.6148C67.0969 29.3978 66.7775 30.5544 66.7775 32.0847C66.7775 33.615 67.0969 34.7614 67.7358 35.524C68.0275 35.8893 68.3993 36.1827 68.8224 36.3815C69.2456 36.5803 69.7087 36.6791 70.1762 36.6705C71.4522 36.6705 72.4199 36.0773 73.0791 34.891V29.2452C72.4013 28.0454 71.4336 27.4455 70.1762 27.4455" fill="white"/>
<path d="M84.7285 29.7582V39.2526H80.8672V19.0156H84.7285V26.6213C85.9876 25.2876 87.4586 24.6199 89.1414 24.6182C90.6666 24.6182 91.8377 25.0732 92.6545 25.9833C93.4713 26.8933 93.878 28.1516 93.8747 29.7582V39.2526H90.0108V30.658C90.0108 29.8107 89.8176 29.1379 89.4312 28.6397C89.0448 28.1465 88.4627 27.9 87.6899 27.9C86.4698 27.9 85.4826 28.5194 84.7285 29.7582Z" fill="white"/>
<path d="M103.756 24.6351C105.362 24.6351 106.633 25.1486 107.569 26.1756V24.869H111.43V39.2695H107.561V37.9985C106.612 39.0051 105.341 39.5085 103.748 39.5085C102.87 39.5339 101.998 39.3678 101.191 39.0219C100.384 38.676 99.6623 38.1585 99.0757 37.5054C97.8742 36.1496 97.2734 34.3499 97.2734 32.1061C97.2734 29.8624 97.8767 28.0499 99.0833 26.6688C99.6652 26.0078 100.385 25.4829 101.193 25.1315C102 24.78 102.875 24.6106 103.756 24.6351ZM104.658 36.6843C105.934 36.6843 106.902 36.0911 107.561 34.9049V29.2387C106.883 28.0389 105.915 27.439 104.658 27.439C104.188 27.4312 103.722 27.5335 103.298 27.7379C102.874 27.9423 102.504 28.243 102.218 28.6159C101.579 29.3989 101.259 30.5555 101.259 32.0858C101.259 33.6161 101.579 34.7625 102.218 35.5251C102.509 35.8904 102.881 36.1838 103.304 36.3826C103.727 36.5814 104.191 36.6803 104.658 36.6716" fill="white"/>
<path d="M119.653 20.6205C119.658 20.9042 119.602 21.1858 119.49 21.4463C119.377 21.7068 119.21 21.94 118.999 22.1304C118.573 22.5337 118.005 22.7529 117.418 22.7405C116.826 22.7516 116.253 22.533 115.819 22.1304C115.61 21.9398 115.444 21.7078 115.329 21.4491C115.215 21.1905 115.156 20.9108 115.156 20.6281C115.156 20.3453 115.215 20.0657 115.329 19.807C115.444 19.5483 115.61 19.3163 115.819 19.1257C116.249 18.7153 116.824 18.4907 117.418 18.5004C117.71 18.4948 118 18.5471 118.271 18.6545C118.543 18.7618 118.79 18.922 118.999 19.1257C119.207 19.315 119.373 19.546 119.485 19.8035C119.598 20.061 119.655 20.3394 119.653 20.6205ZM115.471 24.8605H119.332V39.261H115.471V24.8605Z" fill="white"/>
<path d="M127.252 30.2146V39.2438H123.391V24.8433H127.252V26.9913C127.712 26.2801 128.334 25.6877 129.067 25.2627C129.682 24.9006 130.371 24.6825 131.083 24.6248C131.794 24.5672 132.509 24.6714 133.175 24.9297L132.333 27.8912C131.915 27.8019 131.49 27.7534 131.062 27.7463C129.28 27.7463 128.009 28.5691 127.249 30.2146" fill="white"/>
</svg>
